<svg version="1.1"
	width="1000" height="600"
	xmlns="http://www.w3.org/2000/svg">
	<style>
		@font-face{
			src: "Sono.woff2";
			font-family: "Sono";
		}

		svg{
			font-family: "Sono", monospace;
			background: #fff;
		}
	</style>

	<g id="bitByte">
		<g id="bit">
			<text x="50" y="70" font-size="30" text-anchor="middle">b</text>
			<text x="125" y="40" font-size="20" text-anchor="middle">1000=10<tspan font-size="15" dy="-15">3</tspan></text>
			<line x1="90" y1="60" x2="150" y2="60" stroke="#000" stroke-width="5"/>
			<polygon points="160 60 140 50 140 70" fill="#000"/>
			<text x="200" y="70" font-size="30" text-anchor="middle">Kb</text>
			<text x="275" y="40" font-size="20" text-anchor="middle">1000=10<tspan font-size="15" dy="-15">3</tspan></text>
			<line x1="240" y1="60" x2="300" y2="60" stroke="#000" stroke-width="5"/>
			<polygon points="310 60 290 50 290 70" fill="#000"/>
			<text x="350" y="70" font-size="30" text-anchor="middle">Mb</text>
			<text x="425" y="40" font-size="20" text-anchor="middle">1000=10<tspan font-size="15" dy="-15">3</tspan></text>
			<line x1="390" y1="60" x2="450" y2="60" stroke="#000" stroke-width="5"/>
			<polygon points="460 60 440 50 440 70" fill="#000"/>
			<text x="500" y="70" font-size="30" text-anchor="middle">Gb</text>
			<text x="575" y="40" font-size="20" text-anchor="middle">1000=10<tspan font-size="15" dy="-15">3</tspan></text>
			<line x1="540" y1="60" x2="600" y2="60" stroke="#000" stroke-width="5"/>
			<polygon points="610 60 590 50 590 70" fill="#000"/>
			<text x="650" y="70" font-size="30" text-anchor="middle">Tb</text>
			<text x="725" y="40" font-size="20" text-anchor="middle">1000=10<tspan font-size="15" dy="-15">3</tspan></text>
			<line x1="690" y1="60" x2="750" y2="60" stroke="#000" stroke-width="5"/>
			<polygon points="760 60 740 50 740 70" fill="#000"/>
			<text x="800" y="70" font-size="30" text-anchor="middle">Pb</text>
			<text x="875" y="40" font-size="20" text-anchor="middle">1000=10<tspan font-size="15" dy="-15">3</tspan></text>
			<line x1="840" y1="60" x2="900" y2="60" stroke="#000" stroke-width="5"/>
			<polygon points="910 60 890 50 890 70" fill="#000"/>
			<text x="950" y="70" font-size="30" text-anchor="middle">Eb</text>
		</g>
		<text x="60" y="110" font-size="20" text-anchor="left">8=2<tspan font-size="15" dy="-15">3</tspan></text>
		<line x1="50" y1="80" x2="50" y2="130" stroke="#000" stroke-width="5"/>
		<polygon points="50 140 40 120 60 120" fill="#000"/>
		<g id="Byte">
			<text x="50" y="170" font-size="30" text-anchor="middle">B</text>
			<text x="125" y="140" font-size="20" text-anchor="middle">1024=2<tspan font-size="15" dy="-15">10</tspan></text>
			<line x1="90" y1="160" x2="150" y2="160" stroke="#000" stroke-width="5"/>
			<polygon points="160 160 140 150 140 170" fill="#000"/>
			<text x="200" y="170" font-size="30" text-anchor="middle">KB</text>
			<text x="275" y="140" font-size="20" text-anchor="middle">1024=2<tspan font-size="15" dy="-15">10</tspan></text>
			<line x1="240" y1="160" x2="300" y2="160" stroke="#000" stroke-width="5"/>
			<polygon points="310 160 290 150 290 170" fill="#000"/>
			<text x="350" y="170" font-size="30" text-anchor="middle">MB</text>
			<text x="425" y="140" font-size="20" text-anchor="middle">1024=2<tspan font-size="15" dy="-15">10</tspan></text>
			<line x1="390" y1="160" x2="450" y2="160" stroke="#000" stroke-width="5"/>
			<polygon points="460 160 440 150 440 170" fill="#000"/>
			<text x="500" y="170" font-size="30" text-anchor="middle">GB</text>
			<text x="575" y="140" font-size="20" text-anchor="middle">1024=2<tspan font-size="15" dy="-15">10</tspan></text>
			<line x1="540" y1="160" x2="600" y2="160" stroke="#000" stroke-width="5"/>
			<polygon points="610 160 590 150 590 170" fill="#000"/>
			<text x="650" y="170" font-size="30" text-anchor="middle">TB</text>
			<text x="725" y="140" font-size="20" text-anchor="middle">1024=2<tspan font-size="15" dy="-15">10</tspan></text>
			<line x1="690" y1="160" x2="750" y2="160" stroke="#000" stroke-width="5"/>
			<polygon points="760 160 740 150 740 170" fill="#000"/>
			<text x="800" y="170" font-size="30" text-anchor="middle">PB</text>
			<text x="875" y="140" font-size="20" text-anchor="middle">1024=2<tspan font-size="15" dy="-15">10</tspan></text>
			<line x1="840" y1="160" x2="900" y2="160" stroke="#000" stroke-width="5"/>
			<polygon points="910 160 890 150 890 170" fill="#000"/>
			<text x="950" y="170" font-size="30" text-anchor="middle">EB</text>
		</g>
	</g>
	<g id="Hertz">
		<text x="50" y="320" font-size="30" text-anchor="middle">Hz</text>
		<text x="125" y="290" font-size="20" text-anchor="middle">1000=10<tspan font-size="15" dy="-15">3</tspan></text>
		<line x1="90" y1="310" x2="150" y2="310" stroke="#000" stroke-width="5"/>
		<polygon points="160 310 140 300 140 320" fill="#000"/>
		<text x="200" y="320" font-size="30" text-anchor="middle">KHz</text>
		<text x="275" y="290" font-size="20" text-anchor="middle">1000=10<tspan font-size="15" dy="-15">3</tspan></text>
		<line x1="240" y1="310" x2="300" y2="310" stroke="#000" stroke-width="5"/>
		<polygon points="310 310 290 300 290 320" fill="#000"/>
		<text x="350" y="320" font-size="30" text-anchor="middle">MHz</text>
		<text x="425" y="290" font-size="20" text-anchor="middle">1000=10<tspan font-size="15" dy="-15">3</tspan></text>
		<line x1="390" y1="310" x2="450" y2="310" stroke="#000" stroke-width="5"/>
		<polygon points="460 310 440 300 440 320" fill="#000"/>
		<text x="500" y="320" font-size="30" text-anchor="middle">GHz</text>
		<text x="575" y="290" font-size="20" text-anchor="middle">1000=10<tspan font-size="15" dy="-15">3</tspan></text>
		<line x1="540" y1="310" x2="600" y2="310" stroke="#000" stroke-width="5"/>
		<polygon points="610 310 590 300 590 320" fill="#000"/>
		<text x="650" y="320" font-size="30" text-anchor="middle">THz</text>
		<text x="725" y="290" font-size="20" text-anchor="middle">1000=10<tspan font-size="15" dy="-15">3</tspan></text>
		<line x1="690" y1="310" x2="750" y2="310" stroke="#000" stroke-width="5"/>
		<polygon points="760 310 740 300 740 320" fill="#000"/>
		<text x="800" y="320" font-size="30" text-anchor="middle">PHz</text>
		<text x="875" y="290" font-size="20" text-anchor="middle">1000=10<tspan font-size="15" dy="-15">3</tspan></text>
		<line x1="840" y1="310" x2="900" y2="310" stroke="#000" stroke-width="5"/>
		<polygon points="910 310 890 300 890 320" fill="#000"/>
		<text x="950" y="320" font-size="30" text-anchor="middle">EHz</text>
	</g>
	<g id="bitByte/s">
		<g id="bit/s">
			<text x="50" y="470" font-size="30" text-anchor="middle">b/s</text>
			<text x="125" y="440" font-size="20" text-anchor="middle">1000=10<tspan font-size="15" dy="-15">3</tspan></text>
			<line x1="90" y1="460" x2="150" y2="460" stroke="#000" stroke-width="5"/>
			<polygon points="160 460 140 450 140 470" fill="#000"/>
			<text x="200" y="470" font-size="30" text-anchor="middle">Kb/s</text>
			<text x="275" y="440" font-size="20" text-anchor="middle">1000=10<tspan font-size="15" dy="-15">3</tspan></text>
			<line x1="240" y1="460" x2="300" y2="460" stroke="#000" stroke-width="5"/>
			<polygon points="310 460 290 450 290 470" fill="#000"/>
			<text x="350" y="470" font-size="30" text-anchor="middle">Mb/s</text>
			<text x="425" y="440" font-size="20" text-anchor="middle">1000=10<tspan font-size="15" dy="-15">3</tspan></text>
			<line x1="390" y1="460" x2="450" y2="460" stroke="#000" stroke-width="5"/>
			<polygon points="460 460 440 450 440 470" fill="#000"/>
			<text x="500" y="470" font-size="30" text-anchor="middle">Gb/s</text>
			<text x="575" y="440" font-size="20" text-anchor="middle">1000=10<tspan font-size="15" dy="-15">3</tspan></text>
			<line x1="540" y1="460" x2="600" y2="460" stroke="#000" stroke-width="5"/>
			<polygon points="610 460 590 450 590 470" fill="#000"/>
			<text x="650" y="470" font-size="30" text-anchor="middle">Tb/s</text>
			<text x="725" y="440" font-size="20" text-anchor="middle">1000=10<tspan font-size="15" dy="-15">3</tspan></text>
			<line x1="690" y1="460" x2="750" y2="460" stroke="#000" stroke-width="5"/>
			<polygon points="760 460 740 450 740 470" fill="#000"/>
			<text x="800" y="470" font-size="30" text-anchor="middle">Pb/s</text>
			<text x="875" y="440" font-size="20" text-anchor="middle">1000=10<tspan font-size="15" dy="-15">3</tspan></text>
			<line x1="840" y1="460" x2="900" y2="460" stroke="#000" stroke-width="5"/>
			<polygon points="910 460 890 450 890 470" fill="#000"/>
			<text x="950" y="470" font-size="30" text-anchor="middle">Eb/s</text>
		</g>
		<text x="60" y="510" font-size="20" text-anchor="left">8=2<tspan font-size="15" dy="-15">3</tspan></text>
		<line x1="50" y1="480" x2="50" y2="530" stroke="#000" stroke-width="5"/>
		<polygon points="50 540 40 520 60 520" fill="#000"/>
		<g id="Byte/s">
			<text x="50" y="570" font-size="30" text-anchor="middle">B/s</text>
			<text x="125" y="540" font-size="20" text-anchor="middle">1024=2<tspan font-size="15" dy="-15">10</tspan></text>
			<line x1="90" y1="560" x2="150" y2="560" stroke="#000" stroke-width="5"/>
			<polygon points="160 560 140 550 140 570" fill="#000"/>
			<text x="200" y="570" font-size="30" text-anchor="middle">KB/s</text>
			<text x="275" y="540" font-size="20" text-anchor="middle">1024=2<tspan font-size="15" dy="-15">10</tspan></text>
			<line x1="240" y1="560" x2="300" y2="560" stroke="#000" stroke-width="5"/>
			<polygon points="310 560 290 550 290 570" fill="#000"/>
			<text x="350" y="570" font-size="30" text-anchor="middle">MB/s</text>
			<text x="425" y="540" font-size="20" text-anchor="middle">1024=2<tspan font-size="15" dy="-15">10</tspan></text>
			<line x1="390" y1="560" x2="450" y2="560" stroke="#000" stroke-width="5"/>
			<polygon points="460 560 440 550 440 570" fill="#000"/>
			<text x="500" y="570" font-size="30" text-anchor="middle">GB/s</text>
			<text x="575" y="540" font-size="20" text-anchor="middle">1024=2<tspan font-size="15" dy="-15">10</tspan></text>
			<line x1="540" y1="560" x2="600" y2="560" stroke="#000" stroke-width="5"/>
			<polygon points="610 560 590 550 590 570" fill="#000"/>
			<text x="650" y="570" font-size="30" text-anchor="middle">TB/s</text>
			<text x="725" y="540" font-size="20" text-anchor="middle">1024=2<tspan font-size="15" dy="-15">10</tspan></text>
			<line x1="690" y1="560" x2="750" y2="560" stroke="#000" stroke-width="5"/>
			<polygon points="760 560 740 550 740 570" fill="#000"/>
			<text x="800" y="570" font-size="30" text-anchor="middle">PB/s</text>
			<text x="875" y="540" font-size="20" text-anchor="middle">1024=2<tspan font-size="15" dy="-15">10</tspan></text>
			<line x1="840" y1="560" x2="900" y2="560" stroke="#000" stroke-width="5"/>
			<polygon points="910 560 890 550 890 570" fill="#000"/>
			<text x="950" y="570" font-size="30" text-anchor="middle">EB/s</text>
		</g>
	</g>
</svg>
